<svg height="138" viewBox="0 0 557 138" width="557" xmlns="http://www.w3.org/2000/svg"><g fill="#fff" fill-rule="evenodd"><path d="m17.5718 91.6865c0 9.621.098 17.971.195 19.695.097 2.269.291 5.9 1.07 6.898 1.264 1.724 5.058 3.63 16.536 3.63 9.047 0 17.412-3.085 23.152-8.441 5.058-4.629 7.782-13.342 7.782-21.691 0-11.527-5.35-18.969-9.339-22.871-9.144-8.986-20.233-10.256-31.809-10.256-1.945 0-5.544.272-6.322.635-.876.363-1.167.817-1.167 1.815-.098 3.086-.098 12.344-.098 19.332zm-8.171-9.802c0-14.158 0-16.7-.195-19.604-.194-3.086-.68-4.538-3.89-5.173-.779-.182-2.432-.273-3.308-.273-.681 0-1.07-.181-1.07-.544 0-.544.487-.726 1.556-.726 4.378 0 10.506.272 10.993.272 1.167 0 7.295-.272 13.132-.272 9.63 0 27.431-.817 39.007 10.347 4.863 4.719 9.436 12.253 9.436 23.052 0 11.436-5.059 20.24-10.506 25.594-4.183 4.085-12.938 10.438-29.474 10.438-4.183 0-9.339-.273-13.522-.544-4.28-.273-7.587-.545-8.073-.545-.195 0-1.849 0-3.892.091-1.945 0-4.182.181-5.641.181-1.07 0-1.557-.181-1.557-.726 0-.273.195-.544.973-.544 1.07-.091 1.848-.182 2.724-.364 1.945-.363 2.432-2.359 2.821-4.992.486-3.811.486-10.981.486-19.694z"/><path d="m119.2725 92.0498c.525 0 .525-.272.42-.637l-9.983-22.576c-.526-1.365-1.051-1.365-1.577 0l-9.248 22.576c-.21.455 0 .637.315.637zm-21.229 3.277c-.525 0-.84 2.273-1.05 2.729l-6.305 16.11c-.947 2.276-1.472 4.461-1.472 6.098 0 1.821 6.373 2.64 8.16 2.64h.945c1.051 0 1.366.183 1.366.546 0 .546-.946.729-1.892.729-2.522 0-11.102-.274-12.257-.274-1.156 0-6.936.274-11.876.274-1.366 0-1.996-.183-1.996-.729 0-.363.525-.546 1.471-.546.736 0 1.681-.09 2.522-.181 4.834-.547 6.936-4.005 8.828-8.557l23.855-56.525c1.262-3.003 1.682-3.549 2.312-3.549.631 0 1.051.455 2.312 3.276 1.577 3.459 18.077 41.052 24.487 54.887 3.783 8.101 6.831 9.557 9.038 10.104 1.576.455 3.258.545 4.098.545.631 0 1.156.092 1.156.546 0 .546-.946.729-2.102.729-1.576 0-16.248 0-23.499-.183-1.997-.091-3.153-.091-3.153-.636 0-.364.316-.546.736-.637.63-.183 8.148-1.379 6.63-3.459l-8.773-23.391c-.21-.364-.42-.546-.946-.546z"/><path d="m356.2119 133.7588c-.289-.042-.797.073-1.402.175-7.02 1.625-14.677 1.551-19.49.848-4.288-.625-16.319-2.762-32.72-12.797-.453-.414-.922-.846-1.409-1.3-4.448-4.132-31.875-27.372-37.837-33.852 2.461-2.722 13.249-13.334 21.578-21.315 5.677-5.446 7.475-6.572 9.842-7.512 1.325-.563 3.028-.939 4.826-1.127.852-.094 1.041-.281 1.041-.657s-.284-.657-1.609-.657c-1.514 0-7.097.281-10.031.281-3.219 0-7.42-.281-10.164-.281-.852 0-1.42.188-1.42.563 0 .376.189.564.852.845.756.282 5.981-.056 5.715 1.785-.16 1.114-.378 2.065-6.056 7.888-5.773 5.915-18.643 19.342-21.577 22.16v-.015c-.087.153-.205.28-.343.386.153.151.267.338.343.546v-.072c8.248 9.764 24.701 28.468 40.772 37.974 6.798 5.131 12.107 7.214 27.235 9.532 14.23 2.181 25.607-.334 31.445-1.944.618-.193.851-.442.905-.813.041-.279-.111-.584-.496-.641"/><path d="m391.1758 55.5644c-3.988 0-7.199.272-8.27.272-1.068 0-10.445-.272-14.822-.272-1.167 0-1.945.091-1.945.635 0 .364.292.636 1.361.636.876 0 2.433.09 4.184.454 3.014.726 7.007 1.133 6.316 10.211l1.155 37c-3.114-2.996-11.025-8.546-20.655-18.167-13.813-13.808-27.797-25.304-30.944-28.534-.171-.101-.343-.213-.516-.347-.026-.021-.054-.045-.081-.066.001.033-.008.065-.01.097-.537-.516-1.002-1.106-1.419-1.752-1.303.057-2.26.105-2.631.105-.876 0-7.978-.272-13.523-.272-1.167 0-1.751.182-1.751.727 0 .362.292.544.779.544.875 0 2.97.348 4.863.544 4.171.433 6.81 3.086 7.005 10.529l.728 36.425c.683 21.046 2.137 16.506 2.137 16.506l2.363-52.006c3.113 3.267 15.578 14.231 26.863 25.576 10.311 10.346 24.319 23.688 25.389 24.595 5.154 4.811 4.428 5.809 5.206 5.809.681 0 .875-.453.875-6.443l-.666-52.87c0-6.263 3.437-7.758 6.161-8.302 1.166-.182 1.75-.273 2.528-.363.681-.091 1.07-.272 1.07-.636 0-.544-.68-.635-1.75-.635"/><path d="m405 82.5517c0-14.158 0-16.7-.251-19.604-.25-3.086-.59-5.205-4.73-5.84-.878-.182-2.51-.182-3.64-.273-.878-.091-1.632-.181-1.632-.544 0-.545.628-.726 2.009-.726 2.886 0 6.275 0 14.181.272.877 0 29.55 0 32.437-.091 2.76-.09 5.019-.272 5.772-.544.752-.273 1.004-.363 1.379-.363.377 0 .503.363.503.817 0 .635-.753 1.724-1.004 4.265-.126 1.361-.602 7.177-.854 9.536-.125.908-.502 1.543-1.003 1.543-.754 0-1.005-.453-1.005-1.179 0-1.18-.547-2.182-.627-2.996-.868-8.825-3.868-7.658-12.383-7.448-2.14.052-15.811-.273-17.192-.273-.502 0-.753.273-.753.908v25.05c0 .635.125.907.753.907 1.631 0 17.062-.269 19.953-.182 7.087.213 5.199-3.682 6.454-4.772.627-.544 1.004-.907 1.506-.907.376 0 .627.181.627.725 0 .545.21 5.822-.167 8.817-.376 2.813.188 7.005.063 8.275-.126.907-1.393.858-1.896.858-.752 0-.878-.726-.878-1.452 0-.817-.125-1.724-.502-2.541-.502-1.362-2.571-3.737-7.09-4.099-3.387-.273-15.811.546-17.944.546-.628 0-.879.272-.879.634v5.988c0 3.086-.126 13.614 0 15.519.251 3.722 1.005 5.718 4.142 6.626 2.132.635 5.521.817 10.415.817 3.765 0 7.906-.091 11.294-.817 4.016-.908 8.219-7.906 9.223-11.809.251-.998.503-1.362 1.13-1.362.752 0 .752.727.752 1.362 0 .726-2.885 11.398-3.514 13.303-.878 2.361-2.823 2.953-7.715 2.953-9.288 0-13.429-.181-18.323-.272-5.02-.091-10.793-.273-15.687-.273-3.011 0-10.039.636-13.303.545-1.379 0-2.007-.181-2.007-.726 0-.273.628-.453 1.38-.544 1.255-.091 2.008-.091 2.886-.273 2.636-.454 7.619-1.33 7.869-8.136.126-3.54.251-8.169.251-16.246z"/><path d="m460.6562 122.999c-1.639-.636-1.757-.999-1.757-3.449 0-4.538-1.53-10.168-1.414-11.62.117-.999.352-1.452.937-1.452.703 0 .821.271.821.998 0 .816 2 4.086 2.35 5.358 1.756 6.716 9.486 9.257 17.332 9.257 11.241 0 14.746-5.262 14.746-11.071 0-6.262-2.397-9.893-12.467-16.336l-5.271-3.359c-10.1-4.825-15.433-11.158-15.222-19.694.239-9.709 10.368-17.337 25.239-17.337 4.567 0 7.964.363 10.892.908 2.223.362 3.161.453 4.097.453.938 0 1.171.182 1.171.636 0 .453-1.29 5.687-1.29 11.859 0 1.453-.233 2.087-.82 2.087-.702 0-.82-.453-.936-1.179-.118-1.089-.821-6.539-1.522-7.538-.703-.999-3.042-4.049-13.816-4.049-8.081 0-14.404 3.902-14.404 10.527 0 5.174 3.044 8.441 14.286 15.248l3.279 1.997c13.819 8.441 17.097 14.068 17.097 21.328 0 3.721-1.874 10.619-9.954 15.067-5.035 2.722-11.358 3.811-17.683 3.811-5.503 0-10.89-.636-15.691-2.45"/><path d="m513.1562 122.999c-1.639-.636-1.757-.999-1.757-3.449 0-4.538-1.53-10.168-1.414-11.62.117-.999.352-1.452.937-1.452.703 0 .821.271.821.998 0 .816 2 4.086 2.35 5.358 1.756 6.716 9.486 9.257 17.332 9.257 11.241 0 14.746-5.262 14.746-11.071 0-6.262-2.397-9.893-12.467-16.336l-5.271-3.359c-10.1-4.825-15.433-11.158-15.222-19.694.239-9.709 10.368-17.337 25.239-17.337 4.567 0 7.964.363 10.892.908 2.223.362 3.161.453 4.097.453.938 0 1.171.182 1.171.636 0 .453-1.29 5.687-1.29 11.859 0 1.453-.233 2.087-.82 2.087-.702 0-.82-.453-.936-1.179-.118-1.089-.821-6.539-1.522-7.538-.703-.999-3.042-4.049-13.816-4.049-8.081 0-14.404 3.902-14.404 10.527 0 5.174 3.044 8.441 14.286 15.248l3.279 1.997c13.819 8.441 17.097 14.068 17.097 21.328 0 3.721-1.874 10.619-9.954 15.067-5.035 2.722-11.358 3.811-17.683 3.811-5.503 0-10.89-.636-15.691-2.45"/><path d="m261.0132 122.9082c-.608 0-2.635-.182-4.054-.363-3.04-.364-3.649-2.36-3.952-4.992-.507-3.812-.507-10.982-.507-19.695v-9.348c.054.057.111.118.167.177.01-.017.021-.033.032-.05-.153-.321-.215-.665-.138-.998-.019.017-.043.039-.061.054v-5.808c0-14.159 0-16.701.203-19.604.202-3.177 1.013-4.992 3.749-5.265 1.014-.09 1.115-.09 2.23-.181.912-.091 1.115-.272 1.115-.635 0-.454-.507-.636-1.621-.636-3.041 0-9.426.273-9.933.273-.506 0-7.297-.273-10.641-.273-1.114 0-1.621.182-1.621.726 0 .364.303.545 1.115.545.709 0 2.533.091 3.648.363 2.229.454 3.243 1.997 3.446 5.083.202 2.903.202 5.445.202 19.604v15.973c0 8.713 0 15.883-.506 19.695-.406 2.632-1.014 4.719-3.041 5.083-.912.181-2.027.272-2.635.272-.912 0-1.114.362-1.114.635 0 .545.506.636 1.621.636 3.04 0 9.02-.273 9.526-.273.507 0 6.892.273 12.466.273 1.115 0 1.52-.182 1.52-.636 0-.273-.304-.635-1.216-.635"/><path d="m131.2334 6.0127c-.837-2.483-1.517-3.186-2.876-3.654-.68-.234-1.987-.281-2.353-.281-.262 0-.471-.047-.471-.328 0-.234.314-.328.837-.328 2.719 0 5.595.141 6.17.141.47 0 2.772-.141 5.386-.141.732 0 .941.141.941.328 0 .281-.261.328-.523.328-.418 0-1.412 0-2.039.281-.314.141-.68.515-.68 1.124s.47 2.249.994 4.31c.783 2.998 6.222 20.19 7.058 22.813l11.138-23.842c.784-1.92.993-2.154 1.307-2.154.366 0 .68.609 1.307 2.201l10.511 23.842c1.516-4.591 6.326-18.176 8.157-24.172.522-1.733.575-2.389.575-2.998 0-.843-.575-1.405-2.981-1.405-.261 0-.471-.141-.471-.328 0-.234.262-.328.89-.328 2.666 0 4.862.141 5.333.141.366 0 2.615-.141 4.235-.141.471 0 .733.094.733.281 0 .234-.157.375-.471.375-.209 0-1.203.047-1.778.234-1.569.515-2.405 2.483-3.399 5.059-2.3 5.95-7.582 20.846-9.621 26.093-1.36 3.466-1.621 4.028-2.196 4.028-.523 0-.837-.608-1.568-2.436l-10.302-23.186c-1.934 4.638-9.098 18.783-10.98 23.14-.837 1.967-1.203 2.482-1.726 2.482s-.784-.515-1.83-3.7z"/><path d="m219.2295 19.6445c0-11.243-7.332-17.286-15.266-17.286-8.386 0-14.663 5.153-14.663 15.412 0 10.915 7.03 17.941 16.069 17.941 4.52 0 13.86-2.435 13.86-16.067m-34.7-.562c0-7.589 5.926-18.316 19.785-18.316 11.299 0 19.736 6.651 19.736 17.566 0 10.494-7.934 19.16-20.037 19.16-13.759 0-19.484-9.978-19.484-18.41"/><path d="m267.418 36.8364c-.342 0-1.141 0-2.225-.141-1.426-.187-3.879-.702-6.961-3.373-3.308-2.904-5.915-7.729-10.593-12.648 5.134-3.887 8.028-5.841 7.903-10.82-.081-3.232-2.51-5.528-3.937-6.372-3.023-1.779-6.846-2.061-10.44-2.061-1.768 0-6.104.141-6.731.141-.287 0-3.88-.141-6.448-.141-.627 0-.912.094-.912.375 0 .187.228.281.456.281.513 0 1.483.047 1.94.141 1.883.328 2.339 1.077 2.453 2.67.114 1.499.114 2.811.114 10.118v8.245c0 4.497 0 8.198-.285 10.165-.228 1.359-.514 2.389-1.655 2.577-.513.093-1.198.187-1.711.187-.343 0-.457.141-.457.281 0 .281.286.375.913.375 1.712 0 5.305-.141 5.363-.141.285 0 3.88.141 7.017.141.628 0 .913-.141.913-.375 0-.14-.114-.281-.456-.281-.514 0-1.769-.094-2.568-.187-1.712-.188-2.054-1.218-2.225-2.577-.285-1.967-.285-5.668-.285-10.165v-1.124c0-.067.012-.124.032-.174.014-.777.051-1.552.055-2.328 0-.072.012-.141.022-.21-.073-.098-.109-.208-.109-.333v-15.318c0-.282.171-.469.456-.562.571-.141 2.111-.282 3.823-.282 6.104 0 9.87 3.514 9.87 9.37 0 3.56-1.483 6.089-3.48 7.213-1.312.75-2.91.891-4.279.891-.472 0-.944-.019-1.41-.041.748.366 1.406.883 1.874 1.576.104.046.198.111.304.198 1.141 1.218 3.669 3.613 5.491 6.623 2.875 4.75 4.704 6.774 7.157 7.852 1.484.655 2.909.89 6.105.89h4.05c1.027 0 1.37-.094 1.37-.375 0-.14-.229-.281-.514-.281"/><path d="m234.9971 123.0654c-.668 0-2.228 0-4.343-.27-2.784-.36-7.573-1.349-13.588-6.476-6.459-5.576-11.548-14.841-20.679-24.285 10.023-7.465 15.671-11.217 15.427-20.778-.157-6.204-4.9-10.613-7.684-12.233-5.903-3.416-13.365-3.957-20.381-3.957-3.452 0-11.916.27-13.141.27-.558 0-7.574-.27-12.586-.27-1.224 0-1.781.18-1.781.72 0 .36.445.539.891.539 1.002 0 2.895.091 3.786.27 3.676.631 4.567 2.07 4.79 5.127.222 2.878.222 5.398.222 19.429v15.83c0 8.635 0 16.74-.557 20.518-.445 2.609-1.002 4.587-3.23 4.947-1.001.181-2.338.36-3.341.36-.668 0-.891.271-.891.539 0 .54.558.72 1.782.72 3.341 0 10.357-.27 10.469-.27.556 0 7.574.27 13.698.27 1.225 0 1.783-.27 1.783-.72 0-.268-.223-.539-.891-.539-1.003 0-3.453-.179-5.012-.36-3.342-.36-4.01-2.338-4.344-4.947-.556-3.778-.556-11.883-.556-20.518v-2.159c0-.128.024-.236.062-.333.027-1.491.099-2.981.106-4.471.001-.138.024-.269.044-.402-.143-.189-.212-.402-.212-.641v-29.411c0-.541.333-.899.89-1.08 1.114-.27 4.121-.54 7.462-.54 11.916 0 19.267 6.746 19.267 17.99 0 6.836-2.896 11.693-6.794 13.852-2.561 1.438-5.68 1.709-8.352 1.709-.922 0-1.843-.036-2.754-.079 1.461.704 2.746 1.696 3.66 3.026.203.09.387.214.594.38 2.227 2.339 7.163 6.937 10.719 12.717 5.612 9.12 9.182 13.007 13.971 15.077 2.895 1.259 5.68 1.709 11.917 1.709h7.906c2.006 0 2.674-.181 2.674-.721 0-.268-.446-.539-1.003-.539"/><path d="m277.7812 23.3452c0 6.886.253 9.884 1.396 10.727 1.015.75 2.665 1.078 7.613 1.078 3.363 0 6.154-.047 7.677-1.406.825-.749 2.463-3.37 2.654-4.26.063-.375.19-.609.571-.609.317 0 .381.187.381.702 0 .516-1.448 4.776-1.957 6.135-.444 1.077-.634 1.265-3.996 1.265-5.456 0-10.85-.281-17.004-.281-1.967 0-3.87.14-6.218.14-.698 0-1.015-.094-1.015-.375 0-.14.127-.281.507-.281.572 0 1.333-.093 1.904-.187 1.269-.188 1.587-1.218 1.84-2.577.317-1.967.317-5.668.317-10.165v-8.244c0-7.308 0-8.62-.127-10.119-.126-1.592-.634-2.342-2.728-2.67-.508-.094-1.586-.141-2.157-.141-.254 0-.508-.093-.508-.28 0-.282.317-.375 1.015-.375 2.856 0 6.853.14 7.17.14s4.949-.14 6.852-.14c.698 0 1.015.093 1.015.375 0 .187-.253.28-.507.28-.445 0-1.333.047-2.094.141-1.84.234-2.348 1.031-2.474 2.67-.127 1.499-.127 2.811-.127 10.119z"/><path d="m307.1865 20.0659c0 4.966.053 9.275.105 10.166.055 1.17.162 3.044.588 3.56.696.89 2.778 1.873 9.08 1.873 4.967 0 9.56-1.593 12.71-4.356 2.778-2.389 4.274-6.887 4.274-11.196 0-5.949-2.938-9.791-5.128-11.805-5.02-4.638-11.108-5.293-17.464-5.293-1.068 0-3.045.14-3.472.328-.48.187-.64.421-.64.936-.053 1.593-.053 6.371-.053 9.978zm-4.487-5.059c0-7.308 0-8.62-.107-10.119-.107-1.592-.374-2.342-2.136-2.67-.427-.093-1.335-.14-1.816-.14-.374 0-.588-.094-.588-.281 0-.281.267-.375.855-.375 2.403 0 5.768.141 6.036.141.64 0 4.005-.141 7.21-.141 5.287 0 15.06-.421 21.416 5.34 2.67 2.436 5.18 6.324 5.18 11.899 0 5.902-2.777 10.446-5.768 13.21-2.296 2.108-7.104 5.387-16.183 5.387-2.297 0-5.127-.141-7.423-.281-2.35-.141-4.166-.281-4.432-.281-.108 0-1.016 0-2.137.047-1.067 0-2.297.093-3.099.093-.586 0-.853-.093-.853-.375 0-.14.107-.28.534-.28.588-.047 1.015-.094 1.495-.188 1.069-.187 1.335-1.218 1.549-2.576.267-1.968.267-5.668.267-10.165z"/><path d="m394.0937 19.6445c0-11.243-7.332-17.286-15.267-17.286-8.385 0-14.663 5.153-14.663 15.412 0 10.915 7.031 17.941 16.07 17.941 4.519 0 13.86-2.435 13.86-16.067m-34.7-.562c0-7.589 5.926-18.316 19.785-18.316 11.299 0 19.735 6.651 19.735 17.566 0 10.494-7.934 19.16-20.036 19.16-13.76 0-19.484-9.978-19.484-18.41"/><path d="m408.8877 15.0068c0-7.308 0-8.62-.122-10.119-.122-1.592-.609-2.341-2.624-2.67-.365-.046-.977-.046-1.525-.093-.55-.047-1.039-.094-1.039-.328 0-.281.306-.375.977-.375 2.381 0 4.7.141 6.897.141 1.22 0 13.612 0 15.015-.047s3.358-.047 3.845-.281c.184-.094.428-.187.55-.187.244 0 .367.187.367.421s-.245.89-.367 1.452c-.245 1.358-.566 4.581-.687 5.893 0 .562-.307.936-.55.936-.304 0-.367-.187-.427-.609-.062-.655-.838-4.253-1.693-4.815-.732-.468-1.832-.843-3.601-.89-3.114-.047-6.226-.093-9.339-.14-.366 0-.549.14-.549.515v13.929c0 .281.06.422.427.422 2.503 0 5.982 0 8.484-.047 3.234-.047 4.484-1.1 5.339-1.897.305-.28.428-.468.672-.468.243 0 .304.141.304.375 0 .281-.308 2.017-.492 3.563-.182 1.405-.074 4.001-.134 4.703-.063.515-.124.797-.428.797-.367 0-.428-.328-.489-.797-.123-1.03-.775-2.813-3.949-3.141-1.525-.14-8.178-.14-9.216-.14-.305 0-.426.093-.426.421l-.092 1.721c0 3.982 0 7.307.183 9.462.183 2.108.855 3.139 2.502 3.279.794.094 1.832.141 2.502.188.55.047.733.14.733.327 0 .235-.306.329-.976.329-3.419 0-7.203-.141-7.508-.141h-.549c-1.22.047-3.967.141-5.433.141-.671 0-.976-.094-.976-.375 0-.141.123-.234.671-.281.612-.047 1.16-.094 1.587-.188 1.282-.281 1.709-.984 1.892-3.045.183-2.014.244-5.293.244-9.696z"/></g></svg>